<svg width="1600" height="900" viewBox="0 0 1600 900" xmlns="http://www.w3.org/2000/svg" role="img" aria-labelledby="title desc">
  <title id="title">Визуализация индустриального кампуса Прайм Инвест</title>
  <desc id="desc">Схематичная иллюстрация комплекса современных производственных и офисных зданий с зелеными зонами.</desc>
  <defs>
    <linearGradient id="bg" x1="0" y1="0" x2="1" y2="1">
      <stop offset="0%" stop-color="#0c2037" />
      <stop offset="100%" stop-color="#1d3557" />
    </linearGradient>
    <linearGradient id="accent" x1="0" y1="0" x2="1" y2="0">
      <stop offset="0%" stop-color="#f0a429" />
      <stop offset="100%" stop-color="#ffce73" />
    </linearGradient>
  </defs>
  <rect width="1600" height="900" fill="url(#bg)" />
  <rect x="120" y="240" width="420" height="280" rx="24" fill="#f7f8fb" opacity="0.92" />
  <rect x="580" y="200" width="520" height="320" rx="28" fill="#e5ebf5" opacity="0.95" />
  <rect x="1160" y="260" width="320" height="260" rx="22" fill="#d8e0ec" opacity="0.9" />
  <rect x="140" y="360" width="380" height="140" fill="#0c2037" opacity="0.82" />
  <rect x="620" y="360" width="460" height="140" fill="#0c2037" opacity="0.78" />
  <rect x="1180" y="380" width="280" height="120" fill="#0c2037" opacity="0.76" />
  <rect x="240" y="320" width="80" height="28" fill="#f0a429" opacity="0.9" />
  <rect x="320" y="320" width="80" height="28" fill="#f0a429" opacity="0.8" />
  <rect x="700" y="300" width="120" height="36" fill="#f0a429" opacity="0.8" />
  <rect x="920" y="300" width="80" height="36" fill="#f0a429" opacity="0.8" />
  <rect x="1240" y="340" width="120" height="30" fill="#f0a429" opacity="0.8" />
  <circle cx="220" cy="550" r="34" fill="#3cb371" opacity="0.9" />
  <circle cx="480" cy="560" r="42" fill="#2f8f6d" opacity="0.85" />
  <circle cx="940" cy="560" r="38" fill="#3cb371" opacity="0.9" />
  <circle cx="1320" cy="560" r="44" fill="#2f8f6d" opacity="0.9" />
  <text x="140" y="180" fill="#ffce73" font-family="Inter, Arial" font-size="48" font-weight="700">Prime Invest</text>
  <text x="140" y="230" fill="#ffffff" font-family="Inter, Arial" font-size="30" font-weight="500">Индустриальные и коммерческие пространства под ключ</text>
  <text x="140" y="270" fill="#dbe4f3" font-family="Inter, Arial" font-size="20">Проектирование, строительство, ввод в эксплуатацию</text>
  <path d="M140 620 C400 650 600 700 900 680 C1140 660 1280 620 1460 610" stroke="url(#accent)" stroke-width="8" fill="none" opacity="0.7" />
</svg>
