<svg width="1200" height="760" viewBox="0 0 1200 760" xmlns="http://www.w3.org/2000/svg">
  <defs>
    <linearGradient id="bg" x1="0" y1="0" x2="1" y2="1">
      <stop offset="0%" stop-color="#0f1b2d" />
      <stop offset="100%" stop-color="#1d3557" />
    </linearGradient>
    <linearGradient id="lines" x1="0" y1="0" x2="1" y2="0">
      <stop offset="0%" stop-color="#00d2ff" />
      <stop offset="100%" stop-color="#3a7bd5" />
    </linearGradient>
  </defs>
  <rect width="1200" height="760" fill="url(#bg)" />
  <rect x="180" y="200" width="840" height="360" rx="28" fill="#0c2037" opacity="0.8" />
  <rect x="220" y="240" width="760" height="280" rx="20" fill="#0f172a" opacity="0.9" />
  <rect x="260" y="280" width="160" height="220" fill="#121e33" />
  <rect x="460" y="280" width="160" height="220" fill="#121e33" />
  <rect x="660" y="280" width="160" height="220" fill="#121e33" />
  <rect x="860" y="280" width="80" height="220" fill="#121e33" opacity="0.7" />
  <g stroke="url(#lines)" stroke-width="6" opacity="0.8">
    <line x1="280" y1="320" x2="360" y2="320" />
    <line x1="480" y1="360" x2="540" y2="360" />
    <line x1="680" y1="340" x2="760" y2="340" />
    <line x1="280" y1="420" x2="360" y2="420" />
    <line x1="480" y1="440" x2="540" y2="440" />
    <line x1="680" y1="420" x2="760" y2="420" />
  </g>
  <text x="200" y="150" fill="#ffce73" font-family="Inter, Arial" font-size="34" font-weight="700">Центр обработки данных</text>
  <text x="200" y="185" fill="#dbe4f3" font-family="Inter, Arial" font-size="22">Инженерные системы Tier III для стабильной работы</text>
</svg>
